<svg xmlns="http://www.w3.org/2000/svg" width="32" height="32" viewBox="0 0 32 32">
  <g id="audio-icon" transform="translate(-1.925 -2.103)">
    <path id="Path_74" data-name="Path 74" d="M6.932,12.515H1.925V23.536H6.934l6.082,7.83,3.945.877V3.788l-3.947.874Zm8.147-6.062V29.576l-1.1-.241L7.765,21.327H3.808v-6.6H7.767l6.217-8.028,1.1-.241Z" transform="translate(0 0)"/>
    <path id="Path_75" data-name="Path 75" d="M21.957,2.1l-.928,1.884c4.42,2.886,7.164,8.311,7.164,14.157a16.882,16.882,0,0,1-7.07,14.08l.941,1.879c4.941-3.283,8.011-9.4,8.011-15.959,0-6.624-3.112-12.771-8.119-16.041Z" transform="translate(3.85)"/>
    <path id="Path_76" data-name="Path 76" d="M24.281,18.138c0-4.32-1.72-8.36-4.489-10.541l-1,1.989c2.227,1.755,3.61,5.035,3.61,8.552,0,3.482-1.361,6.744-3.55,8.5l1.018,1.981c2.724-2.192,4.414-6.21,4.414-10.485Z" transform="translate(2.865 0)"/>
  </g>
</svg>
