<?xml version="1.0" standalone="no"?>
<!DOCTYPE svg PUBLIC "-//W3C//DTD SVG 20010904//EN"
 "http://www.w3.org/TR/2001/REC-SVG-20010904/DTD/svg10.dtd">
<svg version="1.0" xmlns="http://www.w3.org/2000/svg"
 width="260.000000pt" height="260.000000pt" viewBox="0 0 260.000000 260.000000"
 preserveAspectRatio="xMidYMid meet">
<metadata>
Created by potrace 1.11, written by Peter Selinger 2001-2013
</metadata>
<g transform="translate(0.000000,260.000000) scale(0.100000,-0.100000)"
fill="#000000" stroke="none">
<path d="M544 1499 c-21 -16 -52 -41 -69 -54 -16 -13 -47 -37 -69 -54 -46 -37
-52 -38 -60 -8 -8 32 -72 94 -111 107 -18 6 -78 12 -134 13 l-101 3 2 -206 3
-205 102 2 c113 2 149 14 202 65 17 17 34 41 37 54 3 13 10 24 14 24 4 0 56
-38 115 -85 l108 -85 36 27 c20 15 70 54 111 87 l75 59 3 -74 3 -74 123 1 c67
0 127 3 132 7 6 3 8 22 6 41 l-4 36 -83 0 -82 0 1 160 c1 146 -1 160 -16 161
-23 2 -55 2 -68 0 -6 -1 -10 -33 -10 -75 l0 -74 -97 -78 c-54 -42 -103 -81
-108 -85 -6 -4 -21 0 -34 10 l-24 18 98 79 c55 44 103 82 109 86 8 5 -40 57
-54 58 -3 0 -54 -39 -113 -86 -104 -82 -110 -85 -128 -68 -10 9 -16 21 -13 26
4 5 51 45 105 88 89 71 97 79 81 92 -48 40 -47 40 -88 7z m-326 -95 c49 -34
66 -109 37 -164 -23 -44 -53 -60 -112 -60 l-53 0 0 120 0 120 53 0 c31 0 61
-6 75 -16z"/>
<path d="M1110 1502 c-12 -4 -14 -402 -2 -403 4 0 62 -1 130 -2 l122 -2 0 42
0 42 -82 3 -83 3 -1 140 c-1 77 -2 149 -3 160 -1 16 -8 20 -36 20 -19 0 -39
-1 -45 -3z"/>
<path d="M1460 1502 c-16 -6 -13 -399 3 -404 6 -2 64 -3 127 -3 96 1 116 4
118 17 3 14 -9 16 -75 16 -43 0 -94 1 -113 1 l-35 1 2 58 c0 31 2 67 2 80 1
21 4 22 107 22 80 0 105 3 102 13 -3 8 -34 12 -102 13 -53 1 -100 4 -103 8 -8
7 -6 136 1 144 4 3 53 6 109 6 82 1 102 4 105 16 2 13 -16 15 -118 15 -66 0
-125 -1 -130 -3z"/>
<path d="M1799 1500 c-12 -7 -14 -42 -14 -202 0 -174 2 -193 17 -196 16 -3 18
12 20 168 l3 171 65 -156 c70 -168 94 -206 115 -183 7 7 19 32 28 55 9 23 25
61 36 85 11 24 32 72 46 108 15 36 30 69 35 73 4 5 8 -64 8 -153 -1 -153 7
-202 28 -169 4 7 8 99 8 205 1 174 -1 193 -16 197 -26 7 -42 -12 -73 -88 -16
-38 -38 -92 -51 -120 -12 -27 -31 -72 -43 -100 -17 -37 -24 -46 -30 -35 -5 8
-39 88 -76 177 -38 89 -73 164 -80 167 -6 2 -18 0 -26 -4z"/>
<path d="M2389 1500 c-44 -13 -74 -38 -100 -82 -20 -35 -24 -57 -24 -118 0
-129 60 -200 175 -206 42 -2 65 2 88 16 35 22 74 77 70 99 -6 29 -25 20 -43
-18 -31 -70 -121 -90 -191 -44 -87 57 -86 252 2 309 34 23 101 26 140 8 19 -9
40 -30 49 -50 9 -19 22 -34 30 -34 19 0 19 14 -1 56 -27 57 -118 88 -195 64z"/>
</g>
</svg>
